<svg width="126" height="125" viewBox="0 0 126 125" fill="none" xmlns="http://www.w3.org/2000/svg">
<path d="M86.9587 30.3125C83.3984 26.248 81.4363 21.0283 81.4378 15.625H65.3441V80.2083C65.22 83.7033 63.7444 87.0136 61.2283 89.4424C58.7121 91.8711 55.3516 93.2287 51.8545 93.2292C44.4587 93.2292 38.3128 87.1875 38.3128 79.6875C38.3128 70.7292 46.9587 64.0104 55.8649 66.7708V50.3125C37.8962 47.9167 22.167 61.875 22.167 79.6875C22.167 97.0312 36.542 109.375 51.8024 109.375C68.1566 109.375 81.4378 96.0938 81.4378 79.6875V46.9271C87.9639 51.6138 95.7991 54.1284 103.834 54.1146V38.0208C103.834 38.0208 94.042 38.4896 86.9587 30.3125Z" fill="white"/>
</svg>
