<?xml version="1.0" encoding="UTF-8"?>
<svg xmlns="http://www.w3.org/2000/svg" xmlns:xlink="http://www.w3.org/1999/xlink" width="32px" height="32px" viewBox="0 0 32 32" version="1.1">
<g id="surface1">
<path style="fill-rule:nonzero;fill:rgb(100%,100%,100%);fill-opacity:1;stroke-width:10;stroke-linecap:butt;stroke-linejoin:miter;stroke:rgb(0%,0%,0%);stroke-opacity:1;stroke-miterlimit:10;" d="M 306.002197 157.5 C 306.002197 239.518433 239.518433 306.002197 157.5 306.002197 C 75.481567 306.002197 8.997803 239.518433 8.997803 157.5 C 8.997803 75.481567 75.481567 8.997803 157.5 8.997803 C 239.518433 8.997803 306.002197 75.481567 306.002197 157.5 Z M 306.002197 157.5 " transform="matrix(0.101587,0,0,0.101587,0,0)"/>
<path style="fill-rule:nonzero;fill:rgb(100%,62.352941%,21.960784%);fill-opacity:1;stroke-width:10;stroke-linecap:butt;stroke-linejoin:miter;stroke:rgb(0%,0%,0%);stroke-opacity:1;stroke-miterlimit:10;" d="M 306.002197 157.5 C 306.002197 202.489014 286.00708 242.786865 254.437866 270.010986 C 235.788574 280.739136 213.33252 253.630371 224.714355 232.443237 C 229.328613 223.90686 232.558594 219.79248 237.941895 207.603149 C 245.055542 191.491699 251.592407 169.573975 225.714111 158.57666 C 199.835815 147.540894 168.074341 185.646973 142.349854 173.496094 C 106.858521 156.730957 68.521729 155.577393 67.060547 184.801025 C 66.714478 191.68396 66.791382 203.219604 83.248901 227.213745 C 98.591309 249.631348 87.401733 281.431274 59.908447 269.434204 C 28.723755 242.210083 8.997803 202.142944 8.997803 157.5 C 8.997803 75.481567 75.481567 8.997803 157.5 8.997803 C 239.518433 8.997803 306.002197 75.481567 306.002197 157.5 Z M 306.002197 157.5 " transform="matrix(0.101587,0,0,0.101587,0,0)"/>
<path style=" stroke:none;fill-rule:nonzero;fill:rgb(0%,0%,0%);fill-opacity:1;" d="M 10.441406 10.058594 C 10.441406 11.066406 9.621094 11.886719 8.613281 11.886719 C 7.601562 11.886719 6.78125 11.066406 6.78125 10.058594 C 6.78125 9.046875 7.601562 8.230469 8.613281 8.230469 C 9.621094 8.230469 10.441406 9.046875 10.441406 10.058594 Z M 10.441406 10.058594 "/>
<path style=" stroke:none;fill-rule:nonzero;fill:rgb(0%,0%,0%);fill-opacity:1;" d="M 25.070312 10.058594 C 25.070312 11.066406 24.25 11.886719 23.238281 11.886719 C 22.230469 11.886719 21.410156 11.066406 21.410156 10.058594 C 21.410156 9.046875 22.230469 8.230469 23.238281 8.230469 C 24.25 8.230469 25.070312 9.046875 25.070312 10.058594 Z M 25.070312 10.058594 "/>
<path style="fill:none;stroke-width:10;stroke-linecap:round;stroke-linejoin:miter;stroke:rgb(0%,0%,0%);stroke-opacity:1;stroke-miterlimit:10;" d="M 129.776001 126.00769 C 129.776001 126.00769 138.773804 135.005493 156.769409 135.005493 C 174.765015 135.005493 183.762817 126.00769 183.762817 126.00769 " transform="matrix(0.101587,0,0,0.101587,0,0)"/>
<path style=" stroke:none;fill-rule:nonzero;fill:rgb(0%,0%,0%);fill-opacity:1;" d="M 10.285156 18.480469 C 10.285156 18.984375 9.875 19.394531 9.371094 19.394531 C 8.867188 19.394531 8.457031 18.984375 8.457031 18.480469 C 8.457031 17.976562 8.867188 17.566406 9.371094 17.566406 C 9.875 17.566406 10.285156 17.976562 10.285156 18.480469 Z M 10.285156 18.480469 "/>
<path style=" stroke:none;fill-rule:nonzero;fill:rgb(0%,0%,0%);fill-opacity:1;" d="M 23.085938 18.480469 C 23.085938 18.984375 22.675781 19.394531 22.171875 19.394531 C 21.664062 19.394531 21.257812 18.984375 21.257812 18.480469 C 21.257812 17.976562 21.664062 17.566406 22.171875 17.566406 C 22.675781 17.566406 23.085938 17.976562 23.085938 18.480469 Z M 23.085938 18.480469 "/>
<path style="fill:none;stroke-width:10;stroke-linecap:round;stroke-linejoin:miter;stroke:rgb(0%,0%,0%);stroke-opacity:1;stroke-miterlimit:10;" d="M 128.237915 208.910522 C 128.237915 208.910522 137.235718 220.907593 155.231323 220.907593 C 173.226929 220.907593 182.224731 208.910522 182.224731 208.910522 " transform="matrix(0.101587,0,0,0.101587,0,0)"/>
</g>
</svg>
